<?xml version="1.0" encoding="utf-8"?>
<!-- Generator: Adobe Illustrator 17.1.0, SVG Export Plug-In . SVG Version: 6.00 Build 0)  -->
<!DOCTYPE svg PUBLIC "-//W3C//DTD SVG 1.1//EN" "http://www.w3.org/Graphics/SVG/1.1/DTD/svg11.dtd">
<svg version="1.1" id="Layer_9" xmlns="http://www.w3.org/2000/svg" xmlns:xlink="http://www.w3.org/1999/xlink" x="0px" y="0px"
	 viewBox="6 -22 144 144" enable-background="new 6 -22 144 144" xml:space="preserve">
<circle fill="#6AAEEF" cx="78" cy="50" r="72"/>
<g>
	<path fill="#FFFFFF" stroke="#C1C1C1" stroke-miterlimit="10" d="M48,14H36c-1.7,0-3,1.3-3,3v3c0,1.7,1.3,3,3,3h12c1.7,0,3-1.3,3-3
		v-3C51,15.3,49.7,14,48,14z"/>
	<path fill="#FFFFFF" stroke="#C1C1C1" stroke-miterlimit="10" d="M123,86V50l-18,9v-9l-18,9v-9l-18,9v-9l-18,9V34c0-1.1-0.9-2-2-2
		H35c-1.1,0-2,0.9-2,2v52"/>
</g>
</svg>
