<?xml version="1.0" encoding="utf-8"?>
<!-- Generator: Adobe Illustrator 17.1.0, SVG Export Plug-In . SVG Version: 6.00 Build 0)  -->
<!DOCTYPE svg PUBLIC "-//W3C//DTD SVG 1.1//EN" "http://www.w3.org/Graphics/SVG/1.1/DTD/svg11.dtd">
<svg version="1.1" id="Layer_1" xmlns="http://www.w3.org/2000/svg" xmlns:xlink="http://www.w3.org/1999/xlink" x="0px" y="0px"
	 viewBox="0 0 107 107" enable-background="new 0 0 107 107" xml:space="preserve">
<g>
	<path fill="#00A651" d="M53.5,106.5c12.1,0,23.1-5,32-11H21.5C30.4,101.5,41.4,106.5,53.5,106.5z"/>
	<path fill="#FFFFFF" stroke="#FFFFFF" stroke-width="3" stroke-miterlimit="10" d="M53.5,67.5c18.9,0,35.1,7,41.8,17
		c6.4-8.7,10.2-19.4,10.2-31c0-28.7-23.3-52-52-52s-52,23.3-52,52c0,11.6,3.8,22.3,10.2,31C18.4,74.5,34.6,67.5,53.5,67.5z"/>
	<path fill="#00A651" d="M95.3,85C88.6,75,72.4,67.8,53.5,67.8s-35.1,7.4-41.8,17.3c2.8,3.8,6.1,7.4,9.8,10.4h63.9
		C89.2,92.5,92.5,88.7,95.3,85z"/>
</g>
<ellipse fill="#00A651" stroke="#FFFFFF" stroke-width="3" stroke-miterlimit="10" cx="53.5" cy="44.5" rx="27" ry="31.5"/>
</svg>
