<?xml version="1.0" encoding="utf-8"?>
<!-- Generator: Adobe Illustrator 17.1.0, SVG Export Plug-In . SVG Version: 6.00 Build 0)  -->
<!DOCTYPE svg PUBLIC "-//W3C//DTD SVG 1.1//EN" "http://www.w3.org/Graphics/SVG/1.1/DTD/svg11.dtd">
<svg version="1.1" id="Layer_1" xmlns="http://www.w3.org/2000/svg" xmlns:xlink="http://www.w3.org/1999/xlink" x="0px" y="0px"
	 viewBox="0 0 144.5 144.5" enable-background="new 0 0 144.5 144.5" xml:space="preserve">
<circle fill="#FFFFFF" stroke="#FFFFFF" stroke-width="3" stroke-miterlimit="10" cx="72.2" cy="72.2" r="70.8"/>
<g>
	<path fill="#662D91" stroke="#FFFFFF" stroke-miterlimit="10" d="M72.2,90.7c-29.7,0-53.8,14.4-53.8,32.3H126
		C126,105.1,101.9,90.7,72.2,90.7z"/>
</g>
<g>
	<path fill="#F15A22" stroke="#FFFFFF" stroke-miterlimit="10" d="M27.2,77.1c-13.1,0-23.7,6.4-23.7,14.2H51
		C51,83.5,40.4,77.1,27.2,77.1z"/>
</g>
<ellipse fill="#F15A22" stroke="#FFFFFF" stroke-width="3" stroke-miterlimit="10" cx="27.2" cy="65" rx="14.2" ry="16.6"/>
<g>
	<path fill="#6DC8BF" stroke="#FFFFFF" stroke-miterlimit="10" d="M117,75.3c-13.1,0-23.7,6.4-23.7,14.2h47.5
		C140.7,81.6,130.1,75.3,117,75.3z"/>
</g>
<ellipse fill="#6DC8BF" stroke="#FFFFFF" stroke-width="3" stroke-miterlimit="10" cx="117" cy="63.1" rx="14.2" ry="16.6"/>
<ellipse fill="#662D91" stroke="#FFFFFF" stroke-width="3" stroke-miterlimit="10" cx="72.2" cy="63.2" rx="32.3" ry="37.6"/>
</svg>
